<svg width="140" height="78" viewBox="0 0 140 78" fill="none" xmlns="http://www.w3.org/2000/svg">
<g clip-path="url(#clip0_1_1134)">
<path d="M-0.0263579 55.7569C-0.368293 56.2758 0.0819823 56.4612 0.972369 56.4309C2.85471 56.3904 6.88684 55.2851 9.43612 54.2707C8.96215 54.7122 5.53602 57.7957 1.56483 58.5067C-1.66155 59.0864 0.711684 61.2903 0.711684 61.2903C1.47681 62.4125 2.83778 62.7091 4.12427 62.6922C5.54618 62.6888 6.88006 62.2912 7.2457 62.1732C5.54618 64.4682 4.98418 66.5676 6.41286 66.4497C7.13059 66.4328 8.41031 65.7959 10.3773 64.2356C9.4395 66.4329 10.12 67.8112 11.3185 67.8853C12.2055 67.983 13.4005 67.336 14.4331 65.7454C14.4839 67.2585 15.2524 68.2695 16.3053 68.2897C16.9181 68.3335 17.6358 68.0268 18.3637 67.2787C19.1931 68.4346 19.9075 68.8221 20.5101 68.7783C20.5981 68.7783 20.6861 68.7716 20.7674 68.7514C20.3984 71.0227 19.9244 72.765 19.2405 74.1702C18.9697 73.4356 18.5499 72.6571 17.8829 71.9697C17.8829 71.9697 18.3772 73.7321 18.5804 75.316C18.5567 75.3531 18.533 75.3902 18.5093 75.4239C18.2384 74.4162 17.5071 73.0312 15.591 71.9494C15.591 71.9494 17.9066 73.6749 17.5952 76.6303L17.497 76.6539C17.2025 76.1417 16.048 74.4702 13.5529 74.3893C13.5529 74.3893 16.6912 75.7777 16.2274 78.1771C16.2274 78.1771 19.0272 78.5781 21.739 77.7727C23.188 77.5031 24.5422 77.1762 25.1144 77.0414C26.841 76.6337 34.8951 78.7601 31.7601 77.0954C28.8926 75.5688 28.3035 71.2687 28.009 66.015C29.915 67.6528 31.9023 68.4851 33.0804 68.4279C34.3771 68.4076 34.7698 67.3764 33.1752 65.2433C34.4042 66.0183 36.0969 67.181 37.248 67.2147C37.9589 67.2652 38.4769 66.9114 38.5853 65.8195C40.3694 67.0698 41.6187 67.7235 42.2484 67.6629C43.3859 67.6629 42.8002 65.6881 40.0647 61.1926C42.6953 62.9349 44.9263 63.4336 46.6123 63.3291C49.5238 63.1876 50.8611 61.2735 49.9233 60.8556C47.2115 60.2254 43.2708 58.4663 40.9585 55.5648C42.1231 56.6027 43.4367 57.2599 44.212 57.2666C45.4172 57.3441 45.4781 56.0029 42.14 52.3532C44.1849 54.2033 46.0977 54.8032 47.5467 54.7695C47.6618 54.7695 47.7667 54.756 47.8751 54.7493C47.9022 54.7493 47.9326 54.7459 47.9597 54.7425C49.3952 54.6044 50.2991 53.4788 50.272 53.4956C50.6613 52.8318 50.0113 52.4678 49.4324 52.2521C46.1282 50.6817 43.308 47.8645 41.1819 45.182L41.2801 45.2056C40.0647 43.6723 39.0694 42.1827 38.3415 40.9965C39.865 42.1221 41.0702 42.5939 41.7372 42.6175C42.5666 42.6916 42.6749 42.149 41.7169 41.3369C39.3267 39.4228 37.3766 35.6013 36.1849 32.8008C36.6691 33.121 37.0753 33.2928 37.3428 33.2726C38.1045 33.3164 37.9623 32.0898 35.8836 28.8614C37.4511 30.2734 38.8053 30.9474 39.5197 30.8901C40.1189 30.8833 40.3322 30.4216 39.9327 29.5118C39.6652 28.8984 39.2251 28.3795 38.7342 27.9212C33.551 23.1021 32.9179 17.5384 32.8841 17.2047C33.6492 18.1045 34.5464 18.7583 34.6953 18.8021C35.0677 18.9403 34.9188 18.2427 33.8049 16.3083C35.4029 17.5485 36.7131 18.091 37.1803 18.0236C37.6407 18.0169 37.5256 17.5788 36.4795 16.7633C35.7381 16.2207 34.3026 14.6301 34.3162 14.684C31.3979 11.0917 28.703 5.17068 27.5418 2.44102C27.5655 2.43765 27.5926 2.42417 27.6163 2.42754C27.2168 1.52777 26.9967 0.975098 26.9967 0.975098C26.9899 1.01554 26.9764 1.05935 26.9662 1.09979C26.9358 1.01891 26.9154 0.975098 26.9154 0.975098C26.8342 1.3559 24.2612 12.9047 18.4686 17.3699C17.0873 18.4348 17.4191 19.0414 18.3705 18.9807C19.0679 18.9638 20.1478 18.5696 21.1533 17.7372C20.6387 18.8729 20.8182 18.8425 20.4695 19.9344C18.858 23.921 16.3832 28.7333 14.7175 29.8589C13.6646 30.5733 13.6308 31.0754 14.2605 31.0956C14.2842 31.0956 14.318 31.0956 14.3417 31.0956C14.3789 31.0956 14.4128 31.0956 14.4568 31.0956C14.9951 31.0653 15.9126 30.7384 17.0636 29.9869C16.3933 32.1336 14.5448 36.9897 10.858 39.8507C8.4374 41.7244 9.16866 42.4827 10.7395 42.4153C10.9257 42.4119 11.1221 42.3917 11.332 42.3647C10.2317 44.8753 7.49622 49.2596 1.45649 50.6177C-0.612048 51.1468 0.566106 52.9194 3.28128 52.7644C3.84327 52.7408 4.47297 52.6262 5.15346 52.4072C4.28 52.788 0.914811 54.3246 -0.0263579 55.7602V55.7569Z" fill="#447C2A"/>
<path d="M140.066 55.7569C140.408 56.2758 139.957 56.4612 139.067 56.4309C137.185 56.3904 133.152 55.2851 130.603 54.2707C131.077 54.7122 134.503 57.7957 138.474 58.5067C141.701 59.0864 139.328 61.2903 139.328 61.2903C138.562 62.4125 137.201 62.7091 135.915 62.6922C134.493 62.6888 133.159 62.2912 132.794 62.1732C134.493 64.4682 135.055 66.5676 133.626 66.4497C132.909 66.4328 131.629 65.7959 129.662 64.2356C130.6 66.4329 129.919 67.8112 128.721 67.8853C127.834 67.983 126.639 67.336 125.606 65.7454C125.555 67.2585 124.787 68.2695 123.734 68.2897C123.121 68.3335 122.403 68.0268 121.676 67.2787C120.846 68.4346 120.132 68.8221 119.529 68.7783C119.441 68.7783 119.353 68.7716 119.272 68.7514C119.641 71.0227 120.115 72.765 120.799 74.1702C121.07 73.4356 121.489 72.6571 122.156 71.9697C122.156 71.9697 121.662 73.7321 121.459 75.316C121.483 75.3531 121.506 75.3902 121.53 75.4239C121.801 74.4162 122.532 73.0312 124.448 71.9494C124.448 71.9494 122.133 73.6749 122.444 76.6303L122.542 76.6539C122.837 76.1417 123.991 74.4702 126.486 74.3893C126.486 74.3893 123.348 75.7777 123.812 78.1771C123.812 78.1771 121.012 78.5781 118.3 77.7727C116.851 77.5031 115.497 77.1762 114.925 77.0414C113.198 76.6337 105.144 78.7601 108.279 77.0954C111.147 75.5688 111.736 71.2687 112.03 66.015C110.124 67.6528 108.137 68.4851 106.959 68.4279C105.662 68.4076 105.269 67.3764 106.864 65.2433C105.635 66.0183 103.942 67.181 102.791 67.2147C102.08 67.2652 101.562 66.9114 101.454 65.8195C99.6698 67.0698 98.4206 67.7235 97.7909 67.6629C96.6533 67.6629 97.239 65.6881 99.9745 61.1926C97.344 62.9349 95.1129 63.4336 93.427 63.3291C90.5154 63.1876 89.1782 61.2735 90.1159 60.8556C92.8277 60.2254 96.7684 58.4663 99.0807 55.5648C97.9161 56.6027 96.6026 57.2599 95.8273 57.2666C94.622 57.3441 94.5611 56.0029 97.8992 52.3532C95.8544 54.2033 93.9416 54.8032 92.4926 54.7695C92.3775 54.7695 92.2725 54.756 92.1642 54.7493C92.1371 54.7493 92.1066 54.7459 92.0795 54.7425C90.6441 54.6044 89.7401 53.4788 89.7672 53.4956C89.3779 52.8318 90.0279 52.4678 90.6068 52.2521C93.9111 50.6817 96.7312 47.8645 98.8573 45.182L98.7591 45.2056C99.9745 43.6723 100.97 42.1828 101.698 40.9965C100.174 42.1221 98.969 42.5939 98.3021 42.6175C97.4726 42.6916 97.3643 42.149 98.3224 41.3369C100.713 39.4228 102.663 35.6013 103.854 32.8008C103.37 33.121 102.964 33.2928 102.696 33.2726C101.935 33.3164 102.077 32.0898 104.156 28.8614C102.588 30.2734 101.234 30.9474 100.52 30.8901C99.9203 30.8833 99.7071 30.4217 100.107 29.5118C100.374 28.8984 100.814 28.3795 101.305 27.9212C106.488 23.1021 107.121 17.5384 107.155 17.2047C106.39 18.1045 105.493 18.7583 105.344 18.8021C104.972 18.9403 105.12 18.2427 106.234 16.3083C104.636 17.5485 103.326 18.091 102.859 18.0236C102.399 18.0169 102.514 17.5788 103.56 16.7633C104.301 16.2207 105.737 14.6301 105.723 14.684C108.641 11.0917 111.336 5.17068 112.497 2.44102C112.474 2.43765 112.447 2.42417 112.423 2.42754C112.806 1.53114 113.022 0.975098 113.022 0.975098C113.029 1.01554 113.043 1.05935 113.053 1.09979C113.103 1.01891 113.124 0.975098 113.124 0.975098C113.205 1.3559 115.778 12.9047 121.571 17.3699C122.952 18.4348 122.62 19.0414 121.669 18.9807C120.971 18.9638 119.891 18.5696 118.886 17.7372C119.401 18.8729 119.221 18.8425 119.57 19.9344C121.181 23.921 123.656 28.7333 125.322 29.8589C126.375 30.5733 126.408 31.0754 125.779 31.0956C125.755 31.0956 125.721 31.0956 125.698 31.0956C125.66 31.0956 125.626 31.0956 125.582 31.0956C125.044 31.0653 124.127 30.7384 122.976 29.9869C123.646 32.1336 125.494 36.9897 129.181 39.8507C131.602 41.7244 130.871 42.4827 129.3 42.4153C129.114 42.4119 128.917 42.3917 128.707 42.3647C129.808 44.8753 132.543 49.2596 138.583 50.6177C140.651 51.1468 139.473 52.9194 136.758 52.7644C136.196 52.7408 135.566 52.6262 134.886 52.4072C135.759 52.788 139.124 54.3247 140.066 55.7602V55.7569Z" fill="#447C2A"/>
<path d="M109.506 45.337L69.5911 20.6218L12.7993 62.618H17.8573L69.5978 24.4636L108.094 48.3126L109.506 45.337Z" fill="#447C2A"/>
<path d="M68.4353 41.62H64.1526V49.1821H68.4353V41.62Z" fill="#447C2A"/>
<path d="M68.4353 51.1434H64.1526V58.7056H68.4353V51.1434Z" fill="#447C2A"/>
<path d="M74.6883 41.62H70.4056V49.1821H74.6883V41.62Z" fill="#447C2A"/>
<path d="M74.6883 51.1434H70.4056V58.7056H74.6883V51.1434Z" fill="#447C2A"/>
<path d="M109.188 51.7501L108.575 52.7273L69.6349 28.5446L23.5616 62.6181H21.6624L69.5672 27.1461L109.188 51.7501Z" fill="#447C2A"/>
</g>
<defs>
<clipPath id="clip0_1_1134">
<rect width="140" height="77" fill="white" transform="translate(0 0.975098)"/>
</clipPath>
</defs>
</svg>
