<svg width="140" height="77" viewBox="0 0 140 77" fill="none" xmlns="http://www.w3.org/2000/svg">
<g clip-path="url(#clip0_1_1134)">
<path d="M-0.0263579 54.7818C-0.368293 55.3007 0.0819823 55.4861 0.972369 55.4558C2.85471 55.4153 6.88684 54.31 9.43612 53.2956C8.96215 53.7371 5.53602 56.8206 1.56483 57.5317C-1.66155 58.1113 0.711684 60.3152 0.711684 60.3152C1.47681 61.4374 2.83778 61.734 4.12427 61.7171C5.54618 61.7137 6.88006 61.3161 7.2457 61.1982C5.54618 63.4931 4.98418 65.5925 6.41286 65.4746C7.13059 65.4578 8.41031 64.8208 10.3773 63.2606C9.4395 65.4578 10.12 66.8361 11.3185 66.9102C12.2055 67.0079 13.4005 66.3609 14.4331 64.7703C14.4839 66.2834 15.2524 67.2944 16.3053 67.3146C16.9181 67.3584 17.6358 67.0517 18.3637 66.3036C19.1931 67.4595 19.9075 67.847 20.5101 67.8032C20.5981 67.8032 20.6861 67.7965 20.7674 67.7763C20.3984 70.0476 19.9244 71.7899 19.2405 73.1951C18.9697 72.4605 18.5499 71.682 17.8829 70.9946C17.8829 70.9946 18.3772 72.757 18.5804 74.3409C18.5567 74.378 18.533 74.4151 18.5093 74.4488C18.2384 73.4411 17.5071 72.0561 15.591 70.9743C15.591 70.9743 17.9066 72.6998 17.5952 75.6552L17.497 75.6788C17.2025 75.1666 16.048 73.4951 13.5529 73.4142C13.5529 73.4142 16.6912 74.8026 16.2274 77.202C16.2274 77.202 19.0272 77.603 21.739 76.7976C23.188 76.528 24.5422 76.2011 25.1144 76.0663C26.841 75.6586 34.8951 77.785 31.7601 76.1203C28.8926 74.5937 28.3035 70.2936 28.009 65.0399C29.915 66.6777 31.9023 67.51 33.0804 67.4528C34.3771 67.4325 34.7698 66.4013 33.1752 64.2682C34.4042 65.0433 36.0969 66.2059 37.248 66.2396C37.9589 66.2901 38.4769 65.9363 38.5853 64.8444C40.3694 66.0947 41.6187 66.7484 42.2484 66.6878C43.3859 66.6878 42.8002 64.713 40.0647 60.2175C42.6953 61.9598 44.9263 62.4585 46.6123 62.354C49.5238 62.2125 50.8611 60.2984 49.9233 59.8805C47.2115 59.2503 43.2708 57.4912 40.9585 54.5897C42.1231 55.6276 43.4367 56.2848 44.212 56.2915C45.4172 56.369 45.4781 55.0278 42.14 51.3781C44.1849 53.2282 46.0977 53.8281 47.5467 53.7944C47.6618 53.7944 47.7667 53.7809 47.8751 53.7742C47.9022 53.7742 47.9326 53.7708 47.9597 53.7674C49.3952 53.6293 50.2991 52.5037 50.272 52.5205C50.6613 51.8567 50.0113 51.4927 49.4324 51.277C46.1282 49.7066 43.308 46.8894 41.1819 44.2069L41.2801 44.2305C40.0647 42.6972 39.0694 41.2077 38.3415 40.0214C39.865 41.147 41.0702 41.6188 41.7372 41.6424C42.5666 41.7165 42.675 41.1739 41.7169 40.3618C39.3267 38.4477 37.3766 34.6262 36.1849 31.8257C36.6691 32.1459 37.0753 32.3177 37.3428 32.2975C38.1045 32.3413 37.9623 31.1147 35.8836 27.8863C37.4511 29.2983 38.8053 29.9723 39.5197 29.915C40.1189 29.9082 40.3322 29.4466 39.9327 28.5367C39.6652 27.9233 39.2251 27.4044 38.7342 26.9461C33.551 22.127 32.9179 16.5633 32.8841 16.2296C33.6492 17.1294 34.5464 17.7832 34.6953 17.827C35.0677 17.9652 34.9188 17.2676 33.8049 15.3332C35.4029 16.5734 36.7131 17.1159 37.1803 17.0485C37.6407 17.0418 37.5256 16.6037 36.4795 15.7882C35.7381 15.2456 34.3026 13.655 34.3162 13.7089C31.3979 10.1166 28.703 4.19558 27.5418 1.46592C27.5655 1.46255 27.5926 1.44908 27.6163 1.45245C27.2168 0.55267 26.9967 0 26.9967 0C26.9899 0.0404393 26.9764 0.0842486 26.9662 0.124688C26.9358 0.0438092 26.9154 0 26.9154 0C26.8342 0.380803 24.2612 11.9296 18.4686 16.3948C17.0873 17.4597 17.4191 18.0663 18.3705 18.0056C19.0679 17.9888 20.1478 17.5945 21.1533 16.7621C20.6387 17.8978 20.8182 17.8674 20.4695 18.9593C18.858 22.9459 16.3832 27.7582 14.7175 28.8838C13.6646 29.5982 13.6308 30.1003 14.2605 30.1205C14.2842 30.1205 14.318 30.1205 14.3417 30.1205C14.3789 30.1205 14.4128 30.1205 14.4568 30.1205C14.9951 30.0902 15.9126 29.7633 17.0636 29.0118C16.3933 31.1585 14.5448 36.0146 10.858 38.8757C8.4374 40.7493 9.16866 41.5076 10.7395 41.4402C10.9257 41.4368 11.1221 41.4166 11.332 41.3896C10.2317 43.9002 7.49622 48.2845 1.45649 49.6426C-0.612048 50.1717 0.566106 51.9443 3.28128 51.7893C3.84327 51.7657 4.47297 51.6511 5.15346 51.4321C4.28 51.8129 0.914811 53.3496 -0.0263579 54.7851V54.7818Z" fill="#447C2A"/>
<path d="M140.066 54.7818C140.408 55.3007 139.957 55.4861 139.067 55.4558C137.185 55.4153 133.152 54.31 130.603 53.2956C131.077 53.7371 134.503 56.8206 138.474 57.5317C141.701 58.1113 139.328 60.3152 139.328 60.3152C138.562 61.4374 137.201 61.734 135.915 61.7171C134.493 61.7137 133.159 61.3161 132.794 61.1982C134.493 63.4931 135.055 65.5926 133.626 65.4746C132.909 65.4577 131.629 64.8208 129.662 63.2606C130.6 65.4578 129.919 66.8361 128.721 66.9102C127.834 67.0079 126.639 66.3609 125.606 64.7703C125.555 66.2834 124.787 67.2944 123.734 67.3146C123.121 67.3584 122.403 67.0517 121.676 66.3036C120.846 67.4595 120.132 67.847 119.529 67.8032C119.441 67.8032 119.353 67.7965 119.272 67.7763C119.641 70.0476 120.115 71.7899 120.799 73.1951C121.07 72.4605 121.489 71.682 122.156 70.9946C122.156 70.9946 121.662 72.757 121.459 74.3409C121.483 74.378 121.506 74.4151 121.53 74.4488C121.801 73.4411 122.532 72.0561 124.448 70.9743C124.448 70.9743 122.133 72.6998 122.444 75.6552L122.542 75.6788C122.837 75.1666 123.991 73.4951 126.486 73.4142C126.486 73.4142 123.348 74.8026 123.812 77.202C123.812 77.202 121.012 77.603 118.3 76.7976C116.851 76.528 115.497 76.2011 114.925 76.0663C113.198 75.6586 105.144 77.785 108.279 76.1203C111.147 74.5937 111.736 70.2936 112.03 65.0399C110.124 66.6777 108.137 67.51 106.959 67.4528C105.662 67.4325 105.269 66.4013 106.864 64.2682C105.635 65.0433 103.942 66.2059 102.791 66.2396C102.08 66.2901 101.562 65.9363 101.454 64.8444C99.6698 66.0947 98.4206 66.7484 97.7909 66.6878C96.6533 66.6878 97.239 64.713 99.9745 60.2175C97.344 61.9598 95.1129 62.4585 93.427 62.354C90.5154 62.2125 89.1782 60.2984 90.1159 59.8805C92.8277 59.2503 96.7684 57.4912 99.0807 54.5897C97.9161 55.6276 96.6026 56.2848 95.8273 56.2915C94.622 56.369 94.5611 55.0278 97.8992 51.3781C95.8544 53.2282 93.9416 53.8281 92.4926 53.7944C92.3775 53.7944 92.2725 53.7809 92.1642 53.7742C92.1371 53.7742 92.1066 53.7708 92.0795 53.7674C90.6441 53.6293 89.7401 52.5037 89.7672 52.5205C89.3779 51.8567 90.0279 51.4927 90.6068 51.277C93.9111 49.7066 96.7312 46.8894 98.8573 44.2069L98.7591 44.2305C99.9745 42.6972 100.97 41.2077 101.698 40.0214C100.174 41.147 98.969 41.6188 98.3021 41.6424C97.4726 41.7165 97.3643 41.174 98.3224 40.3618C100.713 38.4477 102.663 34.6262 103.854 31.8257C103.37 32.1459 102.964 32.3177 102.696 32.2975C101.935 32.3413 102.077 31.1147 104.156 27.8863C102.588 29.2983 101.234 29.9723 100.52 29.915C99.9203 29.9082 99.7071 29.4466 100.107 28.5367C100.374 27.9233 100.814 27.4044 101.305 26.9461C106.488 22.127 107.121 16.5633 107.155 16.2296C106.39 17.1294 105.493 17.7832 105.344 17.827C104.972 17.9652 105.12 17.2676 106.234 15.3332C104.636 16.5734 103.326 17.1159 102.859 17.0485C102.399 17.0418 102.514 16.6037 103.56 15.7882C104.301 15.2456 105.737 13.655 105.723 13.7089C108.641 10.1166 111.336 4.19558 112.497 1.46592C112.474 1.46255 112.447 1.44908 112.423 1.45245C112.806 0.55604 113.022 0 113.022 0C113.029 0.0404393 113.043 0.0842486 113.053 0.124688C113.103 0.0438092 113.124 0 113.124 0C113.205 0.380803 115.778 11.9296 121.571 16.3948C122.952 17.4597 122.62 18.0663 121.669 18.0056C120.971 17.9888 119.891 17.5945 118.886 16.7621C119.401 17.8978 119.221 17.8674 119.57 18.9593C121.181 22.9459 123.656 27.7582 125.322 28.8838C126.375 29.5982 126.408 30.1003 125.779 30.1205C125.755 30.1205 125.721 30.1205 125.698 30.1205C125.66 30.1205 125.626 30.1205 125.582 30.1205C125.044 30.0902 124.127 29.7633 122.976 29.0118C123.646 31.1585 125.494 36.0146 129.181 38.8757C131.602 40.7493 130.871 41.5076 129.3 41.4402C129.114 41.4368 128.917 41.4166 128.707 41.3896C129.808 43.9002 132.543 48.2845 138.583 49.6426C140.651 50.1717 139.473 51.9443 136.758 51.7893C136.196 51.7657 135.566 51.6511 134.886 51.4321C135.759 51.8129 139.124 53.3496 140.066 54.7851V54.7818Z" fill="#447C2A"/>
<path d="M109.506 44.3619L69.5911 19.6467L12.7993 61.6429H17.8573L69.5978 23.4885L108.094 47.3375L109.506 44.3619Z" fill="#447C2A"/>
<path d="M68.4353 40.6449H64.1526V48.207H68.4353V40.6449Z" fill="#447C2A"/>
<path d="M68.4353 50.1683H64.1526V57.7305H68.4353V50.1683Z" fill="#447C2A"/>
<path d="M74.6883 40.6449H70.4056V48.207H74.6883V40.6449Z" fill="#447C2A"/>
<path d="M74.6883 50.1683H70.4056V57.7305H74.6883V50.1683Z" fill="#447C2A"/>
<path d="M109.188 50.775L108.575 51.7523L69.6349 27.5695L23.5616 61.643H21.6624L69.5672 26.171L109.188 50.775Z" fill="#447C2A"/>
</g>
<defs>
<clipPath id="clip0_1_1134">
<rect width="140" height="77" fill="white"/>
</clipPath>
</defs>
</svg>
