<svg width="124" height="71" viewBox="0 0 124 71" fill="none" xmlns="http://www.w3.org/2000/svg">
<path d="M0.0990346 49.8291C-0.202076 50.2895 0.193905 50.4596 0.981743 50.4306C2.64404 50.3932 6.20375 49.4102 8.45177 48.5059C8.03516 48.9 5.00755 51.65 1.50147 52.2847C-1.34877 52.8032 0.750754 54.7651 0.750754 54.7651C1.42722 55.7648 2.62754 56.0302 3.76599 56.0178C5.01993 56.0178 6.19962 55.6569 6.52136 55.5532C5.01993 57.6023 4.52495 59.473 5.78302 59.3693C6.41824 59.3527 7.54431 58.7845 9.28085 57.3949C8.45589 59.3527 9.05399 60.5847 10.1099 60.651C10.8937 60.7381 11.9455 60.1616 12.8571 58.743C12.9024 60.0911 13.583 60.9912 14.5111 61.0119C15.0515 61.0492 15.6867 60.7796 16.326 60.1118C17.0561 61.1446 17.6913 61.4889 18.2193 61.4474C18.2977 61.4474 18.3719 61.4391 18.4462 61.4225C18.1203 63.4467 17.6996 65.0022 17.0974 66.2549C16.8581 65.5995 16.4869 64.9068 15.897 64.2929C15.897 64.2929 16.3343 65.865 16.5116 67.2753C16.491 67.3084 16.4704 67.3416 16.4498 67.3707C16.2105 66.4706 15.5671 65.2386 13.8759 64.2722C13.8759 64.2722 15.9177 65.8111 15.6454 68.4491L15.5588 68.4699C15.2989 68.0136 14.2801 66.5203 12.0775 66.4498C12.0775 66.4498 14.8452 67.6901 14.4369 69.8262C14.4369 69.8262 16.9076 70.183 19.3 69.4654C20.5787 69.2248 21.7749 68.9344 22.2781 68.8141C23.8002 68.4491 30.9113 70.3489 28.1477 68.8639C25.6151 67.5034 25.0954 63.6666 24.8355 58.9794C26.5184 60.4395 28.2715 61.182 29.3109 61.128C30.4576 61.1115 30.8 60.1906 29.3934 58.2909C30.4782 58.9794 31.9714 60.0205 32.9902 60.0496C33.6172 60.0952 34.0751 59.78 34.1699 58.8052C35.7456 59.921 36.8469 60.5017 37.4038 60.4519C38.4102 60.4519 37.8905 58.6932 35.4775 54.6822C37.7998 56.2376 39.7673 56.6815 41.2605 56.5902C43.8302 56.4616 45.0141 54.7568 44.1808 54.3835C41.7843 53.8236 38.3071 52.2515 36.2653 49.6632C37.2924 50.5882 38.4515 51.1772 39.1362 51.1813C40.2004 51.2518 40.254 50.0531 37.3089 46.8011C39.1156 48.452 40.8026 48.9871 42.0813 48.9539C42.1803 48.9539 42.2752 48.9414 42.3701 48.9373C42.3948 48.9373 42.4196 48.9373 42.4443 48.9332C43.7106 48.8087 44.5108 47.8049 44.4861 47.8215C44.8284 47.2284 44.2551 46.9048 43.7436 46.7099C40.8233 45.312 38.336 42.7942 36.4592 40.405L36.5458 40.4258C35.4734 39.0569 34.5948 37.7296 33.9513 36.6719C35.296 37.6757 36.3602 38.0946 36.9501 38.1195C37.6801 38.1859 37.7791 37.7006 36.9336 36.9788C34.8217 35.2699 33.1016 31.8644 32.0498 29.3632C32.4788 29.6495 32.8335 29.8029 33.0727 29.7822C33.7451 29.8195 33.6213 28.7286 31.7817 25.85C33.1635 27.1109 34.3597 27.7124 34.9908 27.6585C35.5229 27.6543 35.7085 27.2437 35.3579 26.4307C35.1228 25.8831 34.7309 25.4186 34.2978 25.0121C29.7193 20.7148 29.1624 15.7539 29.1335 15.4553C29.81 16.2558 30.602 16.8407 30.7298 16.8821C31.0598 17.0066 30.9278 16.3844 29.942 14.6589C31.3527 15.7664 32.5118 16.2475 32.9242 16.1894C33.3326 16.1811 33.2295 15.7912 32.3055 15.0654C31.6538 14.58 30.3834 13.1656 30.3957 13.2112C27.8177 10.0049 25.4418 4.72873 24.4148 2.2939C24.4354 2.2939 24.4601 2.28146 24.4808 2.28146C24.1425 1.48091 23.9487 0.987305 23.9487 0.987305C23.9404 1.02464 23.928 1.06197 23.9239 1.0993C23.895 1.02878 23.8827 0.987305 23.8827 0.987305C23.8125 1.32743 21.5398 11.6267 16.425 15.6087C15.2041 16.5586 15.5011 17.0978 16.3384 17.0439C16.953 17.0315 17.9058 16.6789 18.7968 15.9364C18.3431 16.9485 18.4998 16.9236 18.1946 17.8942C16.7715 21.449 14.5854 25.738 13.1169 26.7459C12.1888 27.3805 12.1558 27.8327 12.7127 27.8493C12.7333 27.8493 12.7622 27.8493 12.7869 27.8493C12.8199 27.8493 12.8488 27.8493 12.8859 27.8493C13.3603 27.8244 14.1729 27.5299 15.1876 26.8621C14.5936 28.7742 12.9643 33.1088 9.70984 35.6598C7.57318 37.3314 8.22078 38.0075 9.60259 37.9453C9.76758 37.9453 9.94082 37.9246 10.1264 37.8997C9.15711 40.1396 6.73997 44.0469 1.41072 45.2622C-0.416566 45.7351 0.62701 47.3155 3.02352 47.1786C3.5185 47.1578 4.07535 47.0541 4.67757 46.8592C3.90623 47.1993 0.93637 48.5723 0.103159 49.8498L0.0990346 49.8291Z" fill="#447C2A"/>
<path d="M122.606 48.8542C122.907 49.3147 122.511 49.4847 121.723 49.4557C120.061 49.4184 116.501 48.4353 114.253 47.5311C114.67 47.9251 117.697 50.6752 121.203 51.3098C124.054 51.8283 121.954 53.7903 121.954 53.7903C121.278 54.7899 120.077 55.0554 118.939 55.0429C117.685 55.0429 116.505 54.6821 116.183 54.5784C117.685 56.6275 118.18 58.4982 116.922 58.3945C116.287 58.3779 115.16 57.8096 113.424 56.4201C114.249 58.3779 113.651 59.6098 112.595 59.6762C111.811 59.7633 110.759 59.1867 109.848 57.7681C109.802 59.1162 109.122 60.0163 108.194 60.0371C107.653 60.0744 107.018 59.8048 106.379 59.137C105.649 60.1698 105.013 60.5141 104.485 60.4726C104.407 60.4726 104.333 60.4643 104.259 60.4477C104.584 62.4719 105.005 64.0274 105.607 65.28C105.847 64.6247 106.218 63.9319 106.808 63.3181C106.808 63.3181 106.371 64.8901 106.193 66.3004C106.214 66.3336 106.234 66.3668 106.255 66.3958C106.494 65.4957 107.138 64.2638 108.829 63.2973C108.829 63.2973 106.787 64.8362 107.059 67.4743L107.146 67.495C107.406 67.0387 108.425 65.5455 110.627 65.475C110.627 65.475 107.86 66.7152 108.268 68.8514C108.268 68.8514 105.797 69.2081 103.405 68.4905C102.126 68.2499 100.93 67.9596 100.427 67.8393C98.9046 67.4743 91.7934 69.374 94.5571 67.8891C97.0897 66.5285 97.6094 62.6917 97.8693 58.0046C96.1864 59.4646 94.4333 60.2071 93.3939 60.1532C92.2472 60.1366 91.9048 59.2158 93.3114 57.316C92.2265 58.0046 90.7334 59.0457 89.7145 59.0747C89.0876 59.1204 88.6297 58.8051 88.5348 57.8304C86.9592 58.9461 85.8578 59.5269 85.301 59.4771C84.2945 59.4771 84.8143 57.7184 87.2273 53.7073C84.905 55.2628 82.9375 55.7066 81.4443 55.6154C78.8745 55.4868 77.6907 53.782 78.5239 53.4087C80.9204 52.8487 84.3977 51.2766 86.4394 48.6883C85.4124 49.6133 84.2533 50.2023 83.5686 50.2065C82.5044 50.277 82.4508 49.0782 85.3959 45.8263C83.5892 47.4771 81.9022 48.0122 80.6235 47.979C80.5245 47.979 80.4296 47.9666 80.3347 47.9624C80.31 47.9624 80.2852 47.9624 80.2605 47.9583C78.9942 47.8339 78.194 46.8301 78.2187 46.8467C77.8763 46.2535 78.4497 45.93 78.9612 45.735C81.8815 44.3372 84.3688 41.8194 86.2456 39.4302L86.159 39.4509C87.2314 38.0821 88.11 36.7548 88.7535 35.697C87.4088 36.7008 86.3446 37.1198 85.7547 37.1447C85.0246 37.211 84.9256 36.7257 85.7712 36.004C87.8831 34.295 89.6032 30.8896 90.655 28.3884C90.226 28.6746 89.8713 28.8281 89.632 28.8073C88.9597 28.8447 89.0834 27.7538 90.9231 24.8751C89.5413 26.1361 88.3451 26.7375 87.714 26.6836C87.1819 26.6795 86.9963 26.2688 87.3469 25.4558C87.582 24.9083 87.9739 24.4437 88.407 24.0372C92.9855 19.74 93.5424 14.7791 93.5712 14.4804C92.8948 15.281 92.1028 15.8658 91.9749 15.9073C91.6449 16.0317 91.7769 15.4095 92.7628 13.684C91.3521 14.7915 90.193 15.2727 89.7805 15.2146C89.3722 15.2063 89.4753 14.8164 90.3993 14.0905C91.051 13.6052 92.3214 12.1908 92.309 12.2364C94.887 9.03004 97.2629 3.75388 98.29 1.31905C98.2694 1.31905 98.2446 1.3066 98.224 1.3066C98.5623 0.506054 98.7561 0.0124512 98.7561 0.0124512C98.7644 0.0497825 98.7767 0.0871138 98.7809 0.124445C98.8097 0.0539304 98.8221 0.0124512 98.8221 0.0124512C98.8922 0.352581 101.165 10.6519 106.28 14.6339C107.501 15.5838 107.204 16.123 106.366 16.0691C105.752 16.0566 104.799 15.704 103.908 14.9616C104.362 15.9737 104.205 15.9488 104.51 16.9194C105.933 20.4742 108.119 24.7631 109.588 25.7711C110.516 26.4057 110.549 26.8578 109.992 26.8744C109.971 26.8744 109.943 26.8744 109.918 26.8744C109.885 26.8744 109.856 26.8744 109.819 26.8744C109.344 26.8495 108.532 26.555 107.517 25.8872C108.111 27.7994 109.74 32.134 112.995 34.6849C115.132 36.3566 114.484 37.0327 113.102 36.9704C112.937 36.9704 112.764 36.9497 112.578 36.9248C113.548 39.1647 115.965 43.072 121.294 44.2874C123.121 44.7602 122.078 46.3406 119.681 46.2037C119.186 46.183 118.629 46.0793 118.027 45.8843C118.799 46.2245 121.768 47.5974 122.602 48.875L122.606 48.8542Z" fill="#447C2A"/>
<path d="M123.872 71L0 68.9426L123.872 66.8853V71Z" fill="#447C2A"/>
<path d="M95.9101 41.5745L60.676 19.5325L10.5389 56.9841H15.0061L60.6801 22.9587L94.6644 44.2292L95.9101 41.5745Z" fill="#447C2A"/>
<path d="M60.5398 38.2563H56.7573V45.0009H60.5398V38.2563Z" fill="#447C2A"/>
<path d="M60.5398 46.7512H56.7573V53.4957H60.5398V46.7512Z" fill="#447C2A"/>
<path d="M66.0588 38.2563H62.2764V45.0009H66.0588V38.2563Z" fill="#447C2A"/>
<path d="M66.0588 46.7512H62.2764V53.4957H66.0588V46.7512Z" fill="#447C2A"/>
<path d="M95.6295 47.2946L95.0892 48.1656L60.713 26.5964L20.0424 56.9841H18.3636L60.6512 25.3479L95.6295 47.2946Z" fill="#447C2A"/>
</svg>
