<svg width="54" height="54" viewBox="0 0 54 54" fill="none" xmlns="http://www.w3.org/2000/svg">
<circle cx="27" cy="27" r="27" fill="#00BBF0"/>
<path d="M37.058 17.66C36.9322 17.5513 36.779 17.479 36.6151 17.4509C36.4511 17.4228 36.2826 17.4399 36.1277 17.5005L15.5451 25.5554C15.2534 25.6689 15.0064 25.874 14.8414 26.1399C14.6763 26.4059 14.6022 26.7182 14.63 27.0299C14.6578 27.3417 14.7862 27.6359 14.9957 27.8684C15.2053 28.1009 15.4847 28.259 15.7919 28.319L21.1249 29.3661V35.3126C21.1239 35.6365 21.2201 35.9532 21.4012 36.2218C21.5823 36.4903 21.8399 36.6983 22.1405 36.8187C22.4408 36.9413 22.7709 36.9707 23.0881 36.9032C23.4052 36.8356 23.6947 36.6742 23.9189 36.4399L26.4905 33.7729L30.5702 37.3438C30.8646 37.6049 31.2442 37.7494 31.6377 37.7501C31.8101 37.7499 31.9814 37.7228 32.1455 37.6698C32.4135 37.5848 32.6546 37.431 32.8448 37.2237C33.0349 37.0165 33.1674 36.763 33.2291 36.4887L37.3516 18.5547C37.3884 18.393 37.3806 18.2243 37.3289 18.0667C37.2772 17.909 37.1836 17.7684 37.058 17.66ZM30.8485 21.3162L21.7495 27.8325L16.712 26.8443L30.8485 21.3162ZM22.7499 35.3126V30.4904L25.2677 32.6983L22.7499 35.3126ZM31.6397 36.1251L23.2425 28.7618L35.3284 20.0995L31.6397 36.1251Z" fill="white"/>
</svg>
