<svg width="54" height="54" viewBox="0 0 54 54" fill="none" xmlns="http://www.w3.org/2000/svg">
<circle cx="27" cy="27" r="27" fill="#64569E"/>
<path d="M22.9607 20.9772C22.7516 20.9468 22.5384 20.9889 22.3566 21.0965H22.3408C21.9189 21.344 21.5387 21.6556 21.2147 22.0224C20.9447 22.334 20.7984 22.649 20.7602 22.9527C20.7377 23.1327 20.7534 23.315 20.8063 23.4871L20.8266 23.4984C21.1303 24.3905 21.5263 25.2489 22.0101 26.0566C22.6338 27.1912 23.4014 28.2405 24.2938 29.1785L24.3208 29.2167L24.3636 29.2482L24.3894 29.2786L24.4209 29.3056C25.3623 30.2007 26.414 30.9719 27.5507 31.6006C28.8501 32.3082 29.6387 32.6424 30.1123 32.7819V32.7886C30.2507 32.8314 30.3767 32.8505 30.5038 32.8505C30.9072 32.8207 31.289 32.6567 31.5883 32.3847C31.9539 32.0607 32.2633 31.6794 32.5041 31.2552V31.2474C32.7302 30.8199 32.6537 30.4171 32.3274 30.1437C31.6721 29.5712 30.9635 29.0626 30.2113 28.625C29.7073 28.3516 29.1954 28.517 28.9884 28.7937L28.5463 29.3517C28.3191 29.6285 27.9073 29.5902 27.9073 29.5902L27.8961 29.597C24.8237 28.8129 24.0036 25.7022 24.0036 25.7022C24.0036 25.7022 23.9653 25.2792 24.2499 25.0632L24.8034 24.6177C25.0689 24.4017 25.2534 23.891 24.9688 23.387C24.5341 22.6341 24.0266 21.9257 23.4534 21.272C23.3284 21.1182 23.1531 21.0134 22.9584 20.9761L22.9607 20.9772ZM28.1526 19.625C28.0034 19.625 27.8603 19.6843 27.7548 19.7898C27.6493 19.8952 27.5901 20.0383 27.5901 20.1875C27.5901 20.3367 27.6493 20.4798 27.7548 20.5852C27.8603 20.6907 28.0034 20.75 28.1526 20.75C29.5746 20.75 30.7558 21.2146 31.6907 22.1056C32.1711 22.5927 32.5457 23.1699 32.7909 23.8021C33.0373 24.4355 33.1498 25.1116 33.1206 25.7889C33.1143 25.9381 33.1676 26.0836 33.2686 26.1935C33.3697 26.3035 33.5103 26.3687 33.6595 26.375C33.8086 26.3813 33.9542 26.328 34.0641 26.227C34.174 26.1259 34.2393 25.9853 34.2456 25.8361C34.2805 25.003 34.1422 24.1718 33.8394 23.3949C33.5354 22.6143 33.0744 21.9044 32.4849 21.3091L32.4737 21.2979C31.3138 20.1897 29.8468 19.625 28.1526 19.625Z" fill="white"/>
<path d="M28.113 21.4745C27.9639 21.4745 27.8208 21.5338 27.7153 21.6393C27.6098 21.7448 27.5505 21.8878 27.5505 22.037C27.5505 22.1862 27.6098 22.3293 27.7153 22.4348C27.8208 22.5403 27.9639 22.5995 28.113 22.5995H28.1322C29.1582 22.6726 29.9052 23.0146 30.4283 23.576C30.9649 24.1543 31.2428 24.8731 31.2214 25.7619C31.218 25.9111 31.274 26.0555 31.377 26.1634C31.4801 26.2713 31.6218 26.3339 31.771 26.3373C31.9202 26.3408 32.0646 26.2848 32.1725 26.1817C32.2804 26.0787 32.343 25.9369 32.3464 25.7878C32.3734 24.6211 31.9977 23.6143 31.2529 22.811V22.8088C30.4913 21.992 29.4462 21.56 28.1884 21.4756L28.1693 21.4734L28.113 21.4745Z" fill="white"/>
<path d="M28.0917 23.3589C28.0164 23.3522 27.9406 23.3608 27.8687 23.3841C27.7968 23.4075 27.7303 23.445 27.6733 23.4946C27.6163 23.5442 27.5698 23.6047 27.5367 23.6726C27.5035 23.7405 27.4844 23.8145 27.4805 23.8899C27.4766 23.9654 27.4879 24.0409 27.5138 24.1119C27.5397 24.1829 27.5796 24.2479 27.6312 24.3032C27.6828 24.3584 27.7449 24.4026 27.814 24.4333C27.8831 24.464 27.9576 24.4804 28.0332 24.4816C28.5034 24.5064 28.8038 24.6481 28.9928 24.8382C29.1829 25.0295 29.3247 25.3366 29.3506 25.817C29.352 25.8925 29.3685 25.9669 29.3993 26.0359C29.4301 26.1048 29.4744 26.1668 29.5297 26.2183C29.585 26.2697 29.65 26.3095 29.721 26.3353C29.792 26.361 29.8674 26.3722 29.9428 26.3682C30.0182 26.3642 30.092 26.3451 30.1598 26.312C30.2277 26.2788 30.2881 26.2324 30.3377 26.1754C30.3872 26.1184 30.4247 26.052 30.448 25.9802C30.4713 25.9083 30.4799 25.8326 30.4733 25.7574C30.4373 25.0824 30.2258 24.4861 29.7927 24.0474C29.3573 23.6086 28.7644 23.3949 28.0917 23.3589Z" fill="white"/>
<path fill-rule="evenodd" clip-rule="evenodd" d="M21.9504 16.6819C25.5302 15.8817 29.2426 15.8817 32.8224 16.6819L33.2038 16.7663C34.2503 17.0003 35.2114 17.5198 35.9804 18.2671C36.7493 19.0144 37.2961 19.9603 37.5598 20.9997C38.4684 24.5804 38.4684 28.3314 37.5598 31.9122C37.2961 32.9516 36.7493 33.8975 35.9804 34.6448C35.2114 35.3921 34.2503 35.9116 33.2038 36.1456L32.8213 36.2299C30.5792 36.7313 28.2785 36.9203 25.9847 36.7913L23 39.4621C22.8875 39.5628 22.75 39.6315 22.6019 39.661C22.4537 39.6905 22.3004 39.6796 22.1579 39.6296C22.0154 39.5796 21.8889 39.4923 21.7917 39.3768C21.6944 39.2612 21.63 39.1217 21.605 38.9727L21.1112 36.0229C20.1641 35.7283 19.3085 35.1956 18.626 34.4759C17.9435 33.7562 17.457 32.8735 17.213 31.9122C16.3043 28.3314 16.3043 24.5804 17.213 20.9997C17.4768 19.9603 18.0235 19.0144 18.7925 18.2671C19.5614 17.5198 20.5226 17.0003 21.569 16.7663L21.9504 16.6819ZM32.4545 18.3278C29.117 17.5817 25.6558 17.5817 22.3183 18.3278L21.9358 18.4133C21.1941 18.5794 20.513 18.9479 19.968 19.4777C19.4231 20.0076 19.0357 20.6781 18.8488 21.4148C18.0092 24.7231 18.0092 28.1888 18.8488 31.4971C19.0357 32.2339 19.4233 32.9046 19.9685 33.4344C20.5136 33.9643 21.195 34.3326 21.9369 34.4986L22.0382 34.5211C22.2019 34.5577 22.3511 34.6424 22.4665 34.7642C22.582 34.886 22.6584 35.0395 22.6862 35.2051L23.0169 37.1828L25.1229 35.2984C25.207 35.223 25.3054 35.1652 25.4123 35.1284C25.5191 35.0917 25.6323 35.0769 25.745 35.0847C27.994 35.2442 30.2542 35.0756 32.4545 34.5841L32.8359 34.4986C33.5778 34.3326 34.2592 33.9643 34.8043 33.4344C35.3495 32.9046 35.7371 32.2339 35.924 31.4971C36.7633 28.1896 36.7633 24.7234 35.924 21.4148C35.7371 20.6779 35.3495 20.0073 34.8043 19.4775C34.2592 18.9476 33.5778 18.5792 32.8359 18.4133L32.4545 18.3278Z" fill="white"/>
</svg>
