<svg width="54" height="54" viewBox="0 0 54 54" fill="none" xmlns="http://www.w3.org/2000/svg">
<circle cx="27" cy="27" r="27" fill="#00AC10"/>
<path d="M35.5025 18.4921C34.3968 17.3808 33.0798 16.4997 31.6283 15.9001C30.1768 15.3006 28.6198 14.9946 27.0482 15.0001C20.4633 15.0001 15.0965 20.3401 15.0965 26.892C15.0965 28.992 15.6513 31.032 16.6884 32.832L15 39L21.3317 37.344C23.0804 38.292 25.0462 38.796 27.0482 38.796C33.6332 38.796 39 33.456 39 26.904C39 23.724 37.7578 20.7361 35.5025 18.4921ZM27.0482 36.78C25.2633 36.78 23.5146 36.3 21.9829 35.4L21.6211 35.184L17.8583 36.168L18.8593 32.52L18.6181 32.148C17.6264 30.5724 17.0999 28.7511 17.0985 26.892C17.0985 21.4441 21.5608 17.0041 27.0362 17.0041C29.6894 17.0041 32.1859 18.0361 34.0553 19.9081C34.9809 20.8248 35.7144 21.9152 36.2133 23.1162C36.7123 24.3171 36.9667 25.6046 36.9618 26.904C36.9859 32.352 32.5236 36.78 27.0482 36.78ZM32.4995 29.388C32.198 29.244 30.7266 28.524 30.4613 28.416C30.1839 28.32 29.991 28.272 29.7859 28.56C29.5809 28.86 29.0141 29.532 28.8452 29.724C28.6764 29.928 28.4955 29.952 28.194 29.796C27.8925 29.652 26.9276 29.328 25.794 28.32C24.9015 27.528 24.3106 26.556 24.1296 26.256C23.9608 25.956 24.1055 25.8 24.2623 25.644C24.395 25.512 24.5638 25.296 24.7085 25.128C24.8533 24.96 24.9136 24.828 25.01 24.636C25.1065 24.432 25.0583 24.264 24.9859 24.12C24.9136 23.976 24.3106 22.512 24.0693 21.9121C23.8281 21.3361 23.5749 21.4081 23.394 21.3961H22.8151C22.61 21.3961 22.2965 21.4681 22.0191 21.7681C21.7538 22.068 20.9819 22.788 20.9819 24.252C20.9819 25.716 22.0553 27.132 22.2 27.324C22.3447 27.528 24.3106 30.528 27.3015 31.812C28.0131 32.124 28.5678 32.304 29.002 32.436C29.7136 32.664 30.3648 32.628 30.8834 32.556C31.4623 32.472 32.6563 31.836 32.8975 31.14C33.1508 30.444 33.1508 29.856 33.0663 29.724C32.9819 29.592 32.801 29.532 32.4995 29.388Z" fill="white"/>
</svg>
